Coordinates
version=1
nRows=12
nColumns=33
inDegrees=yes

Units are S.I. units (second, meters, Newtons, ...)
Angles are in degrees.

endheader
time	ground_thorax_rot_x	ground_thorax_rot_y	ground_thorax_rot_z	ground_thorax_tx	ground_thorax_ty	ground_thorax_tz	clav_prot_r	clav_elev_r	scapula_abduction_r	scapula_elevation_r	scapula_upward_rot_r	scapula_winging_r	shoulder_elv_r	plane_of_elev_r	axial_rot_r	elbow_flexion_r	pro_sup_r	wrist_flex_r	wrist_dev_r	clav_prot_l	clav_elev_l	scapula_abduction_l	scapula_elevation_l	scapula_upward_rot_l	scapula_winging_l	shoulder_elv_l	plane_of_elev_l	axial_rot_l	elbow_flexion_l	pro_sup_l	wrist_flex_l	wrist_dev_l
      3.31000000	     40.51571953	      0.03181590	     13.97521406	    -62.27281021	    796.62338615	     -5.87900127	     15.68428948	     39.98361628	     40.81945313	     43.06908154	    -32.29207484	  -2960.98026261	  -2637.58736241	    149.53393925	   -114.35737047	   2529.27395661	     19.37106627	     17.19175318	     10.49426222	      9.32982448	    -45.00000000	    -39.55104230	     45.00000000	    -40.31651098	   1887.16991774	  -2257.30887811	    136.99644949	   -179.99999979	      4.68381226	     29.94489942	     11.79980327	    -20.07794375
      3.32000000	     40.57129598	      1.32811488	     15.66002396	    -67.87003410	    797.04504760	     -6.38710125	     15.89674350	     40.07972795	     39.80983929	     44.27354707	    -35.00549741	  -2960.08170939	  -2637.16452772	    149.29900641	   -114.78129335	   2529.39706091	     20.46398543	     17.19340063	     10.29554961	      9.26983659	    -45.00000000	    -38.28976357	     45.00000000	    -43.97321311	   1887.10623475	  -2257.02588042	    136.91463293	   -179.99999979	      4.81320075	     30.75959008	     11.76194390	    -20.18709755
      3.33000000	     40.56804407	      1.55870562	     16.06013184	    -73.55389006	    797.59049047	     -6.88573133	     15.83631371	     40.01108623	     39.41182945	     44.81337530	    -36.39881704	  -2959.77956099	  -2636.94274694	    149.13522511	   -114.80431099	   2529.60956422	     21.59580976	     17.26571011	     10.15920987	      9.17127359	    -45.00000000	    -37.75056770	     45.00000000	    -45.00000000	   1887.35014306	  -2257.03928066	    137.03161800	   -179.99999979	      4.92082541	     31.58657479	     11.81392553	    -20.39330615
      3.34000000	     40.50586658	      1.63318018	     16.06479499	    -79.29871728	    798.26837551	     -7.37298350	     16.09913583	     40.02981556	     38.96254269	     45.00000000	    -37.50517035	  -2959.52806485	  -2636.54638004	    149.03100378	   -115.19950312	   2529.68026430	     22.75197183	     17.30156725	      9.94489325	      9.48304649	    -45.00000000	    -37.74908224	     45.00000000	    -45.00000000	   1887.81462948	  -2257.31782812	    137.18411631	   -179.99999979	      4.89253632	     32.60133685	     12.02562839	    -20.64861718
      3.35000000	     40.34418977	      1.36734327	     16.00563127	    -85.08487227	    799.08466647	     -7.84668537	     16.10083560	     39.58427379	     38.75578869	     45.00000000	    -38.27868362	  -2959.43969518	  -2636.28418263	    148.95228897	   -115.73706576	   2529.90335696	     23.91977378	     17.37792329	      9.81528615	      9.71791630	    -45.00000000	    -37.88272087	     45.00000000	    -45.00000000	   1888.32961068	  -2257.49574342	    137.42534155	   -179.99999979	      4.89020082	     33.64933024	     12.16909616	    -20.89107765
      3.36000000	     40.25578761	      1.36306858	     15.85998214	    -90.88495882	    800.04134027	     -8.30322684	     15.98646303	     39.38945041	     38.46831586	     45.00000000	    -38.81169745	  -2959.59868958	  -2636.13861172	    148.94134980	   -115.30648680	   2530.03776900	     25.22672036	     17.48343235	      9.74355842	      9.96952742	    -45.00000000	    -37.76763730	     45.00000000	    -45.00000000	   1888.72929905	  -2257.61623406	    137.55118141	   -179.99999979	      5.00383282	     34.75975735	     12.21316323	    -21.18819893
      3.37000000	     40.15291563	      1.27957760	     15.72190428	    -96.67453715	    801.13989014	     -8.73859041	     15.91258634	     39.16291851	     38.17491274	     45.00000000	    -39.27585198	  -2959.69161477	  -2636.00048711	    148.95226741	   -115.03146896	   2530.18359350	     26.55292006	     17.54110961	      9.55195379	     10.23026307	    -45.00000000	    -37.83847777	     45.00000000	    -45.00000000	   1889.14804930	  -2257.79744696	    137.75100062	   -179.99999979	      5.08915370	     35.92000788	     12.30501468	    -21.49279700
      3.38000000	     40.00569529	      1.21867595	     15.60282177	   -102.43072670	    802.38119493	     -9.14830992	     15.80452038	     39.00274712	     37.84867185	     45.00000000	    -39.77516815	  -2959.83939337	  -2635.91262926	    148.85412412	   -114.63101926	   2530.37996201	     27.92710868	     17.63555958	      9.38576544	     10.42546323	    -45.00000000	    -37.85127395	     45.00000000	    -45.00000000	   1889.57594727	  -2257.91501612	    137.96097023	   -179.99999979	      5.15271186	     37.10179843	     12.38166797	    -21.83491574
      3.39000000	     39.86783038	      1.15378849	     15.50379705	   -108.13061479	    803.76701931	     -9.52790228	     15.71502367	     38.82774171	     37.57101765	     45.00000000	    -40.28029166	  -2960.00756300	  -2635.84134737	    148.76271528	   -113.86101882	   2530.58157539	     29.29065925	     17.69731403	      9.13783402	     10.62605774	    -45.00000000	    -37.88317263	     45.00000000	    -45.00000000	   1890.03091708	  -2258.06923157	    138.21927033	   -179.99999979	      5.25367235	     38.26333195	     12.48763725	    -22.23598549
      3.40000000	     39.78251855	      0.97987835	     15.26112218	   -113.75351312	    805.30101224	     -9.87304299	     15.62812982	     38.60863286	     37.36948691	     45.00000000	    -40.64895365	  -2960.05232018	  -2635.66472827	    148.84909925	   -114.16903146	   2530.77201615	     30.61834099	     17.78256007	      8.99976862	     10.90730494	    -45.00000000	    -37.76791013	     45.00000000	    -45.00000000	   1890.34137609	  -2258.14686141	    138.37711057	   -179.99999979	      5.28697944	     39.55487577	     12.47413550	    -22.49828465
      3.41000000	     39.68728456	      0.85635186	     15.05435386	   -119.27902721	    806.98469670	    -10.17994698	     15.53245988	     38.45468067	     37.11889944	     45.00000000	    -41.02924460	  -2960.17178454	  -2635.54283996	    148.82532413	   -114.15301925	   2530.93812291	     31.93315699	     17.87093670	      8.87068654	     11.09117463	    -45.00000000	    -37.75835077	     45.00000000	    -45.00000000	   1890.71429184	  -2258.25932888	    138.57628057	   -179.99999979	      5.36543660	     40.86549019	     12.48034241	    -22.84068283
      3.42000000	     39.60835742	      0.74515935	     14.81100322	   -124.68638863	    808.81863997	    -10.44560207	     15.41302003	     38.32856719	     36.87402322	     45.00000000	    -41.40090771	  -2960.28802226	  -2635.36648880	    148.82999384	   -114.13125291	   2531.15745231	     33.18695956	     17.96926766	      8.74204508	     11.28357561	    -45.00000000	    -37.70767700	     45.00000000	    -45.00000000	   1891.05474297	  -2258.34769908	    138.75554293	   -179.99999979	      5.45966210	     42.20466248	     12.45281001	    -23.18390761
